<?xml version="1.0" encoding="utf-8"?>
<!-- Generator: Adobe Illustrator 15.0.0, SVG Export Plug-In  -->
<!DOCTYPE svg PUBLIC "-//W3C//DTD SVG 1.1//EN" "http://www.w3.org/Graphics/SVG/1.1/DTD/svg11.dtd" [
	<!ENTITY ns_flows "http://ns.adobe.com/Flows/1.0/">
]>
<svg version="1.1"
	 xmlns="http://www.w3.org/2000/svg" xmlns:xlink="http://www.w3.org/1999/xlink" xmlns:a="http://ns.adobe.com/AdobeSVGViewerExtensions/3.0/"
	 x="0px" y="0px" width="350px" height="350px" viewBox="-13.5 -54.411 350 350" enable-background="new -13.5 -54.411 350 350"
	 xml:space="preserve">
<defs>
</defs>
<path display="none" fill="#C7FFC9" d="M311.489,119.485c9.667-0.477,14.413-5.315,18.959-13.648
	c-10.356,0.388-8.122-2.68-8.122-2.68c0-50.44-41.263-54.339-51.985-54.339c-10.722,0-22.837,4.874-22.837,4.874l-0.728,5.88
	c-2.268-14.425-11.346-30.625-45.327-32.685c-11.694-0.488-40.828,1.705-55.797,18.519c9.644-0.244,17.304,0.975,15.11,4.874
	c-1.754,3.116-17.273,4.068-22.253,17.885l-0.657-2.765c-2.305-0.581-4.814-0.995-7.548-1.219c-1.314-0.108-7.26-0.2-12.992,0.232
	C84.92,66.85,76.33,104.377,76.33,121.678v34.359c0,10.618,5.33,19.785,13.115,25.443c-23.168,0-24.115,24.618-24.115,24.618v11.99
	h182.832h66.168c0,0,0,0.726,0-21.019c0-10.71-7.49-18.485-15.268-23.627c7.17-7.304,11.688-17.294,11.688-28.278
	C310.751,138.749,311.489,119.579,311.489,119.485z"/>
<path fill="none" stroke="#370D57" stroke-width="6" stroke-linecap="round" stroke-linejoin="round" stroke-miterlimit="10" d="
	M104.649,237.812v-31.25c0-20.435,16.565-37,37-37h5.5"/>
<path fill="none" stroke="#370D57" stroke-width="6" stroke-linecap="round" stroke-linejoin="round" stroke-miterlimit="10" d="
	M170.149,169.562h5.5c20.435,0,37,16.565,37,37v31"/>
<path fill="none" stroke="#370D57" stroke-width="6" stroke-linecap="round" stroke-linejoin="round" stroke-miterlimit="10" d="
	M170.149,158.149v17.412c0,6.352-5.148,11.5-11.5,11.5l0,0c-6.352,0-11.5-5.148-11.5-11.5v-17.412"/>
<path fill="none" stroke="#370D57" stroke-width="6" stroke-linecap="round" stroke-linejoin="round" stroke-miterlimit="10" d="
	M92.524,169.562v8.946c0,5.868-4.757,10.625-10.625,10.625l0,0c-5.868,0-10.625-4.757-10.625-10.625v-8.946"/>
<path fill="none" stroke="#370D57" stroke-width="6" stroke-linecap="round" stroke-linejoin="round" stroke-miterlimit="10" d="
	M198.524,44.061c-17.25,35-63.25,10.75-64.75,9.25s-5.25-2.5-7.75-1.5c-15.75,8.5-14.625,34.25-14.625,34.25v26.25
	c0,6.447,1.291,12.594,3.629,18.193c7.126,17.064,23.973,29.057,43.621,29.057l0,0c26.096,0,47.25-21.155,47.25-47.25v-26.75
	c0,0,1.684-32.25-11.364-35.045"/>
<line fill="none" stroke="#370D57" stroke-width="6" stroke-linecap="round" stroke-linejoin="round" stroke-miterlimit="10" x1="122.399" y1="202.562" x2="122.399" y2="237.812"/>
<line fill="none" stroke="#370D57" stroke-width="6" stroke-linecap="round" stroke-linejoin="round" stroke-miterlimit="10" x1="194.899" y1="202.562" x2="194.899" y2="237.812"/>
<line fill="none" stroke="#370D57" stroke-width="6" stroke-linecap="round" stroke-linejoin="round" stroke-miterlimit="10" x1="104.649" y1="221.812" x2="122.399" y2="221.812"/>
<line fill="none" stroke="#370D57" stroke-width="6" stroke-linecap="round" stroke-linejoin="round" stroke-miterlimit="10" x1="194.899" y1="221.812" x2="212.649" y2="221.812"/>
<path fill="none" stroke="#370D57" stroke-width="6" stroke-linecap="round" stroke-linejoin="round" stroke-miterlimit="10" d="
	M207.024,82.311c0,0,5.25-14.5,5.625-29.25s2.375-47-47.125-50c-12-0.5-41.893,1.75-57.25,19c9.893-0.25,17.75,1,15.5,5
	s-26.625,4.5-24.25,31.75c3.17,19.529,5.75,22,10.75,31"/>
<line fill="none" stroke="#370D57" stroke-width="6" stroke-linecap="round" stroke-linejoin="round" stroke-miterlimit="10" x1="230.524" y1="101.811" x2="239.649" y2="101.811"/>
<path fill="none" stroke="#370D57" stroke-width="6" stroke-linecap="round" stroke-linejoin="round" stroke-miterlimit="10" d="
	M225.932,163.88v12.016H214.67c0,0-8.646-0.334-10.896,4.332"/>
<path fill="none" stroke="#370D57" stroke-width="6" stroke-linecap="round" stroke-linejoin="round" stroke-miterlimit="10" d="
	M212.763,30.561c0,0,12.429-5,23.429-5s53.333,4,53.333,55.748"/>
<path fill="none" stroke="#370D57" stroke-width="6" stroke-linecap="round" stroke-linejoin="round" stroke-miterlimit="10" d="
	M277.857,72.895c0,0,6.666,11.666,20,11.166c-5,9.166-11,14.168-22.333,14c-11.333-0.166-23.667-9.034-30.667-16.268
	c-7-7.232-19.523-17.566-32.095-17.232"/>
<path fill="none" stroke="#370D57" stroke-width="6" stroke-linecap="round" stroke-linejoin="round" stroke-miterlimit="10" d="
	M286.857,98.065v60.084c0,0-0.667,19.412,16,23.412c-1.666,6.666-2,11.334-18.333,18"/>
<path fill="none" stroke="#370D57" stroke-width="6" stroke-linecap="round" stroke-linejoin="round" stroke-miterlimit="10" d="
	M199.408,138.446c6.861,12.838,20.84,27.45,36.97,27.45l0,0c22.908,0,41.479-18.668,41.479-41.48c0-6.601,0-26.399,0-26.399"/>
<path fill="none" stroke="#370D57" stroke-width="6" stroke-linecap="round" stroke-linejoin="round" stroke-miterlimit="10" d="
	M272.241,98.938c0.391,5.673-0.485,17.289-14.217,17.289c-10.5,0-16.5-6.333-17.5-13c-1-6.666,1.667-7.332,3.667-7.332h19.208"/>
<path fill="none" stroke="#370D57" stroke-width="6" stroke-linecap="round" stroke-linejoin="round" stroke-miterlimit="10" d="
	M206.637,115.485c1.533,0.475,3.323,0.742,5.41,0.742c10.5,0,16.5-6.333,17.5-13c1-6.666-1.667-7.332-3.667-7.332h-19.23"/>
<path fill="none" stroke="#370D57" stroke-width="6" stroke-linecap="round" stroke-linejoin="round" stroke-miterlimit="10" d="
	M243.589,165.255v10.973h14.091c0,0,27.089-1.488,27.089,27.09s0,31.91,0,31.91"/>
<line fill="none" stroke="#370D57" stroke-width="6" stroke-linecap="round" stroke-linejoin="round" stroke-miterlimit="10" x1="268.857" y1="205.228" x2="268.857" y2="235.228"/>
<path fill="none" stroke="#370D57" stroke-width="6" stroke-linecap="round" stroke-linejoin="round" stroke-miterlimit="10" d="
	M255.31,178.229v10.301c0,11.172-9.057,20.229-20.229,20.229l0,0c-11.172,0-20.229-9.057-20.229-20.229v-10.969"/>
<line fill="none" stroke="#370D57" stroke-width="6" stroke-linecap="round" stroke-linejoin="round" stroke-miterlimit="10" x1="234.579" y1="207.228" x2="234.579" y2="202.562"/>
<path fill="none" stroke="#370D57" stroke-width="6" stroke-linecap="round" stroke-linejoin="round" stroke-miterlimit="10" d="
	M105.274,177.562c3.348,0,6.548,0.633,9.487,1.785"/>
<path fill="none" stroke="#370D57" stroke-width="6" stroke-linecap="round" stroke-linejoin="round" stroke-miterlimit="10" d="
	M93.462,177.562h11.813"/>
<path fill="none" stroke="#370D57" stroke-width="6" stroke-linecap="round" stroke-linejoin="round" stroke-miterlimit="10" d="
	M34.274,235.312v-31.75c0-14.359,11.641-26,26-26h10.563"/>
<line fill="none" stroke="#370D57" stroke-width="6" stroke-linecap="round" stroke-linejoin="round" stroke-miterlimit="10" x1="51.524" y1="204.895" x2="51.524" y2="235.312"/>
<path fill="none" stroke="#370D57" stroke-width="6" stroke-linecap="round" stroke-linejoin="round" stroke-miterlimit="10" d="
	M124.981,146.554c-4.528,12.822-16.753,22.007-31.124,22.007H70.274c-18.226,0-33-14.774-33-33v-35.25
	c0-17.75,8.75-56.25,41.984-58.75c5.879-0.442,11.916-0.349,13.266-0.238c2.804,0.23,5.379,0.654,7.744,1.25"/>
<line fill="none" stroke="#370D57" stroke-width="6" stroke-linecap="round" stroke-linejoin="round" stroke-miterlimit="10" x1="182.107" y1="153.332" x2="182.107" y2="169.562"/>
<path fill-rule="evenodd" clip-rule="evenodd" fill="#370D57" d="M81.641,124.627c3.32-1.611,4.239-2.863,7.506-2.937
	c7.747-0.177,13.817,9.352,19.907,8.812c4.291-0.381,3.137-4.295,2.61-7.18c1.762,0.705,2.935,1.781,3.264,3.264
	c3.015,13.605-29.9,13.313-32.961,3.916c-3.803,9.152-32.929,9.272-33.287-1.959c-0.075-2.371,1.512-5.108,3.59-4.895
	c-0.461,2.086-2.092,6.158,1.958,6.854c7.608,1.305,14.834-11.547,24.149-8.159C79.054,122.589,80.313,123.522,81.641,124.627z"/>
<line fill="none" stroke="#370D57" stroke-width="6" stroke-linecap="round" stroke-linejoin="round" stroke-miterlimit="10" x1="94.333" y1="238.178" x2="293.69" y2="238.178"/>
<line fill="none" stroke="#370D57" stroke-width="6" stroke-linecap="round" stroke-linejoin="round" stroke-miterlimit="10" x1="75.333" y1="238.178" x2="83.899" y2="238.178"/>
<line fill="none" stroke="#370D57" stroke-width="6" stroke-linecap="round" stroke-linejoin="round" stroke-miterlimit="10" x1="23.452" y1="238.178" x2="65.004" y2="238.178"/>
<line fill="none" stroke="#370D57" stroke-width="6" stroke-linecap="round" stroke-linejoin="round" stroke-miterlimit="10" x1="305.857" y1="238.178" x2="320" y2="238.178"/>
<line fill="none" stroke="#370D57" stroke-width="6" stroke-linecap="round" stroke-linejoin="round" stroke-miterlimit="10" x1="11" y1="238.178" x2="3" y2="238.178"/>
</svg>
