<?xml version="1.0" encoding="utf-8"?>
<!-- Generator: Adobe Illustrator 15.0.0, SVG Export Plug-In  -->
<!DOCTYPE svg PUBLIC "-//W3C//DTD SVG 1.1//EN" "http://www.w3.org/Graphics/SVG/1.1/DTD/svg11.dtd" [
	<!ENTITY ns_flows "http://ns.adobe.com/Flows/1.0/">
]>
<svg version="1.1"
	 xmlns="http://www.w3.org/2000/svg" xmlns:xlink="http://www.w3.org/1999/xlink" xmlns:a="http://ns.adobe.com/AdobeSVGViewerExtensions/3.0/"
	 x="0px" y="0px" width="350px" height="350px" viewBox="-12.795 -50.25 350 350" enable-background="new -12.795 -50.25 350 350"
	 xml:space="preserve">
<defs>
</defs>
<circle display="none" fill="#C7FFC9" cx="52.52" cy="207.225" r="0.854"/>
<circle display="none" fill="#C7FFC9" cx="118.064" cy="27.521" r="0.854"/>
<path display="none" fill="#C7FFC9" d="M305.293,199.2c1.757-1.874,3.336-4.266,4.595-7.327c0.913-3.499,0.456-9.431-6.54-10.344
	c-6.998-0.912-8.472-9.278-7.049-13.385c1.42-4.107,2.03-11.864-5.728-13.234c-7.757-1.368-14.146-7.756-14.146-13.537
	c0-5.78-3.65-8.974-9.888-8.974c-6.236,0-8.519-5.627-9.431-7.909c-0.913-2.282-6.084-5.628-12.016-0.761
	c-5.933,4.868-12.931,4.26-15.82-0.608s-9.734-6.369-13.536-1.891c-3.804,4.477-10.801,2.195-13.387-1.152
	c-2.585-3.345-7.652-3.476-13.689,4.868c-3.883,5.366-8.697,3.307-11.104,2.13c-3.134-1.534-10.193-4.716-11.863,6.236
	c0,0-2.131,7.149-11.258,6.693c-9.126-0.457-8.973,4.411-9.277,10.189c-0.305,5.782-1.217,10.109-5.477,11.52
	c-4.258,1.411-8.822,5.519-7.301,12.21c1.521,6.693,0.151,9.431-2.434,11.257c-2.586,1.825-7.302,13.233,8.061,17.797l1.354,0.015
	c1.832,11.602,11.881,12.521,11.881,12.521l96.285,17.274l21.469-0.428c0.918,4,32.378-0.775,46.174-6.828
	C326.869,220.397,305.293,199.2,305.293,199.2z"/>
<path display="none" fill="#C7FFC9" d="M247.525,232.787l-99.091-53.77l1.991-50.768H71.439l5.548,96.837
	c0,0,0.24,9.439,8.549,9.439l30.146,0.024"/>
<path display="none" fill="#C7FFC9" d="M71.439,129.25c0,0,61.881,0,74.898,0c13.016,0,9.815-5.52,9.815-5.52
	s-1.707-3.782-3.628-7.197c-1.92-3.414-5.121-3.283-5.121-3.283H73.525c-1.971,0-4.86-0.357-8.061,7.996
	C62.264,129.602,71.439,129.25,71.439,129.25z"/>
<path display="none" fill="#C7FFC9" d="M81.042,114.25h58.681c0.427-9-6.04-10.93-6.04-10.93s-40.265-0.19-46.026,0.023
	C81.895,103.557,81.042,114.25,81.042,114.25z"/>
<path display="none" fill="#C7FFC9" d="M96.705,105.25h10c0,0,0-18.621,0-22.249c0-3.627,2.974-6.401,2.974-6.401l9.275-9.816
	l-6.245-5.548c0,0-4.161,4.054-10.051,9.389c-5.89,5.334-5.953,10.527-5.953,10.527V105.25z"/>
<line fill="none" stroke="#370D57" stroke-width="6" stroke-linecap="round" stroke-linejoin="round" stroke-miterlimit="10" x1="56.482" y1="55.234" x2="69.682" y2="68.433"/>
<line fill="none" stroke="#370D57" stroke-width="6" stroke-linecap="round" stroke-linejoin="round" stroke-miterlimit="10" x1="69.682" y1="55.234" x2="56.482" y2="68.433"/>
<line fill="none" stroke="#370D57" stroke-width="6" stroke-linecap="round" stroke-linejoin="round" stroke-miterlimit="10" x1="159.234" y1="48.636" x2="172.434" y2="61.834"/>
<line fill="none" stroke="#370D57" stroke-width="6" stroke-linecap="round" stroke-linejoin="round" stroke-miterlimit="10" x1="172.434" y1="48.636" x2="159.234" y2="61.834"/>
<line fill="none" stroke="#370D57" stroke-width="6" stroke-linecap="round" stroke-linejoin="round" stroke-miterlimit="10" x1="272.617" y1="158.169" x2="285.816" y2="171.367"/>
<line fill="none" stroke="#370D57" stroke-width="6" stroke-linecap="round" stroke-linejoin="round" stroke-miterlimit="10" x1="285.816" y1="158.169" x2="272.617" y2="171.367"/>
<circle fill="none" stroke="#370D57" stroke-width="6" stroke-linecap="round" stroke-linejoin="round" stroke-miterlimit="10" cx="10.666" cy="183.5" r="7.666"/>
<circle fill="none" stroke="#370D57" stroke-width="6" stroke-linecap="round" stroke-linejoin="round" stroke-miterlimit="10" cx="192.917" cy="103.5" r="7.666"/>
<circle fill="none" stroke="#370D57" stroke-width="6" stroke-linecap="round" stroke-linejoin="round" stroke-miterlimit="10" cx="249.149" cy="123.25" r="7.666"/>
<circle fill="none" stroke="#370D57" stroke-width="6" stroke-linecap="round" stroke-linejoin="round" stroke-miterlimit="10" cx="21.999" cy="105.833" r="1"/>
<circle fill="none" stroke="#370D57" stroke-width="6" stroke-linecap="round" stroke-linejoin="round" stroke-miterlimit="10" cx="217.458" cy="55.234" r="1"/>
<circle fill="none" stroke="#370D57" stroke-width="6" stroke-linecap="round" stroke-linejoin="round" stroke-miterlimit="10" cx="148.954" cy="19" r="1"/>
<circle fill="none" stroke="#370D57" stroke-width="6" stroke-linecap="round" stroke-linejoin="round" stroke-miterlimit="10" cx="255.303" cy="72" r="1"/>
<circle fill="none" stroke="#370D57" stroke-width="6" stroke-linecap="round" stroke-linejoin="round" stroke-miterlimit="10" cx="31" cy="214.538" r="1"/>
<circle fill="none" stroke="#370D57" stroke-width="6" stroke-linecap="round" stroke-linejoin="round" stroke-miterlimit="10" cx="22.999" cy="136.002" r="1"/>
<circle fill="none" stroke="#370D57" stroke-width="6" stroke-linecap="round" stroke-linejoin="round" stroke-miterlimit="10" cx="107.79" cy="4" r="1"/>
<line fill="none" stroke="#370D57" stroke-width="6" stroke-linecap="round" stroke-linejoin="round" stroke-miterlimit="10" x1="38" y1="246.5" x2="293.667" y2="246.5"/>
<path fill="none" stroke="#370D57" stroke-width="6" stroke-linecap="round" stroke-linejoin="round" stroke-miterlimit="10" d="
	M105,246.5c0,0-13.333-1.333-13.333-18s20-75,78.333-75s77.333,54.001,77.333,77.333c0,0,0.334,15.667,14.334,15.667
	S276,237.962,276,228.294"/>
<path fill="none" stroke="#370D57" stroke-width="6" stroke-linecap="round" stroke-linejoin="round" stroke-miterlimit="10" d="
	M248.667,234.333c0,0,21.667,6.834,30.167-13.833c1-3.833,0.5-10.333-7.167-11.333S262.385,199,263.942,194.5s2.225-13-6.275-14.5
	s-15.5-8.499-15.5-14.833s-3.999-9.834-10.833-9.834S222,149.167,221,146.667s-6.666-6.167-13.166-0.834
	c-6.5,5.334-14.168,4.668-17.334-0.666s-10.666-6.979-14.833-2.072C171.5,148,163.833,145.5,161,141.833
	c-2.833-3.666-8.385-3.809-15,5.334c-4.254,5.879-9.529,3.623-12.167,2.333c-3.433-1.68-11.167-5.167-13,6.833
	c0,0-2.333,7.834-12.333,7.334s-9.832,4.834-10.166,11.166c-0.334,6.334-1.333,11.076-6,12.621c-4.667,1.546-9.666,6.047-8,13.379
	c1.666,7.334,0.166,10.334-2.667,12.334s-8.001,14.5,8.833,19.5"/>
<path fill="none" stroke="#370D57" stroke-width="6" stroke-linecap="round" stroke-linejoin="round" stroke-miterlimit="10" d="
	M273.292,209.292c0,0-5.397-13.594-8.595-17.859"/>
<line fill="none" stroke="#370D57" stroke-width="6" stroke-linecap="round" stroke-linejoin="round" stroke-miterlimit="10" x1="255.303" y1="179.433" x2="242.996" y2="168.167"/>
<path fill="none" stroke="#370D57" stroke-width="6" stroke-linecap="round" stroke-linejoin="round" stroke-miterlimit="10" d="
	M206.667,146.167c0,0-8.833-4.334-16-2.667"/>
<circle fill="none" stroke="#370D57" stroke-width="6" stroke-linecap="round" stroke-linejoin="round" stroke-miterlimit="10" cx="126.878" cy="183.5" r="0.788"/>
<circle fill="none" stroke="#370D57" stroke-width="6" stroke-linecap="round" stroke-linejoin="round" stroke-miterlimit="10" cx="148.166" cy="182.712" r="0.788"/>
<circle fill="none" stroke="#370D57" stroke-width="6" stroke-linecap="round" stroke-linejoin="round" stroke-miterlimit="10" cx="169.666" cy="168.955" r="0.788"/>
<circle fill="none" stroke="#370D57" stroke-width="6" stroke-linecap="round" stroke-linejoin="round" stroke-miterlimit="10" cx="179.718" cy="190.378" r="0.788"/>
<circle fill="none" stroke="#370D57" stroke-width="6" stroke-linecap="round" stroke-linejoin="round" stroke-miterlimit="10" cx="204.916" cy="182.712" r="0.788"/>
<circle fill="none" stroke="#370D57" stroke-width="6" stroke-linecap="round" stroke-linejoin="round" stroke-miterlimit="10" cx="208.916" cy="214.538" r="0.788"/>
<circle fill="none" stroke="#370D57" stroke-width="6" stroke-linecap="round" stroke-linejoin="round" stroke-miterlimit="10" cx="162.666" cy="204.288" r="0.788"/>
<circle fill="none" stroke="#370D57" stroke-width="6" stroke-linecap="round" stroke-linejoin="round" stroke-miterlimit="10" cx="173.166" cy="222.038" r="0.788"/>
<circle fill="none" stroke="#370D57" stroke-width="6" stroke-linecap="round" stroke-linejoin="round" stroke-miterlimit="10" cx="137.878" cy="211.5" r="0.788"/>
<circle fill="none" stroke="#370D57" stroke-width="6" stroke-linecap="round" stroke-linejoin="round" stroke-miterlimit="10" cx="116.628" cy="222.038" r="0.788"/>
<path fill="none" stroke="#370D57" stroke-width="6" stroke-linecap="round" stroke-linejoin="round" stroke-miterlimit="10" d="
	M53.166,126.333l6.5,109.083c0,0,0.281,11.084,10.016,11.084"/>
<line fill="none" stroke="#370D57" stroke-width="6" stroke-linecap="round" stroke-linejoin="round" stroke-miterlimit="10" x1="55.608" y1="164.768" x2="101.766" y2="164.768"/>
<line fill="none" stroke="#370D57" stroke-width="6" stroke-linecap="round" stroke-linejoin="round" stroke-miterlimit="10" x1="57.652" y1="200.362" x2="84.334" y2="200.362"/>
<line fill="none" stroke="#370D57" stroke-width="6" stroke-linecap="round" stroke-linejoin="round" stroke-miterlimit="10" x1="144.633" y1="148.753" x2="144.633" y2="123.25"/>
<path fill="none" stroke="#370D57" stroke-width="6" stroke-linecap="round" stroke-linejoin="round" stroke-miterlimit="10" d="
	M55.608,104.833h86.558c0,0,3.75-0.333,6,3.667s4.25,8.25,4.25,8.25s3.75,6.5-11.5,6.5s-87.75,0-87.75,0s-10.75,0.576-7-9.212
	S53.301,104.833,55.608,104.833z"/>
<path fill="none" stroke="#370D57" stroke-width="6" stroke-linecap="round" stroke-linejoin="round" stroke-miterlimit="10" d="
	M64.416,103.5c0,0,1-12.5,7.75-12.75s53.924,0,53.924,0s7.576,1.75,7.076,12.75"/>
<path fill="none" stroke="#370D57" stroke-width="6" stroke-linecap="round" stroke-linejoin="round" stroke-miterlimit="10" d="
	M95.166,89.5V61.834c0,0-0.301-6.084,6.6-12.334s11.4-11,11.4-11l7.25,6.5l-11,11.5c0,0-3.75,3.25-3.75,7.5s0,25.5,0,25.5"/>
<polyline fill="none" stroke="#370D57" stroke-width="6" stroke-linecap="round" stroke-linejoin="round" stroke-miterlimit="10" points="
	308.077,246.5 308.077,246.5 321.41,246.5 "/>
<line fill="none" stroke="#370D57" stroke-width="6" stroke-linecap="round" stroke-linejoin="round" stroke-miterlimit="10" x1="23.999" y1="246.5" x2="13.41" y2="246.5"/>
</svg>
